<?xml version="1.0" encoding="UTF-8" standalone="no"?>
<!-- Created with Keyshape -->
<svg xmlns="http://www.w3.org/2000/svg" width="100%" height="100%" viewBox="0 0 58 20" clip-rule="evenodd" fill-rule="evenodd" stroke-linejoin="round" stroke-miterlimit="2" style="white-space: preserve-spaces;">
    <defs>
        <mask id="Mask-2">
            <path fill="#dddddd" stroke="none" stroke-linejoin="round" stroke-miterlimit="2" d="M0,28C15.464,28,28,15.464,28,0C28,-15.464,15.464,-28,0,-28C-15.464,-28,-28,-15.464,-28,0C-28,15.464,-15.464,28,0,28ZM0,8C4.41828,8,8,4.41828,8,0C8,-4.41828,4.41828,-8,0,-8C-4.41828,-8,-8,-4.41828,-8,0C-8,4.41828,-4.41828,8,0,8Z" fill-rule="evenodd" clip-rule="evenodd" transform="translate(10,10)"/>
        </mask>
        <mask id="Mask-1">
            <path fill="#dddddd" stroke="none" stroke-linejoin="round" stroke-miterlimit="2" d="M0,28C15.464,28,28,15.464,28,0C28,-15.464,15.464,-28,0,-28C-15.464,-28,-28,-15.464,-28,0C-28,15.464,-15.464,28,0,28ZM0,8C4.41828,8,8,4.41828,8,0C8,-4.41828,4.41828,-8,0,-8C-4.41828,-8,-8,-4.41828,-8,0C-8,4.41828,-4.41828,8,0,8Z" fill-rule="evenodd" transform="translate(10,10)"/>
        </mask>
        <clipPath id="mainClip">
            <rect width="58" height="20" fill="#dddddd" stroke-miterlimit="2" stroke-linejoin="round" stroke="none" rx="10" transform="translate(27.5,9.5) translate(-27.5,-9.5)"/>
        </clipPath>
    </defs>
    <style>
@keyframes left_band_t { 0% { transform: translate(10px,10px) scale(2.6,2.6); } 100% { transform: translate(10px,10px) scale(1,1); } }
@keyframes right_band_t { 0% { transform: translate(10px,10px) scale(1,1); } 100% { transform: translate(10px,10px) scale(2.6,2.6); } }
@keyframes right_wheel_t { 0% { transform: translate(48px,10px) rotate(-15deg) translate(-54px,-15px); } 12.5% { transform: translate(48px,10px) rotate(-75deg) translate(-54px,-15px); animation-timing-function: steps(1); } 12.525% { transform: translate(48px,10px) rotate(-15deg) translate(-54px,-15px); } 25% { transform: translate(48px,10px) rotate(-75deg) translate(-54px,-15px); animation-timing-function: steps(1); } 25.025% { transform: translate(48px,10px) rotate(-15deg) translate(-54px,-15px); } 37.5% { transform: translate(48px,10px) rotate(-75deg) translate(-54px,-15px); animation-timing-function: steps(1); } 37.525% { transform: translate(48px,10px) rotate(-15deg) translate(-54px,-15px); } 50% { transform: translate(48px,10px) rotate(-75deg) translate(-54px,-15px); animation-timing-function: steps(1); } 50.025% { transform: translate(48px,10px) rotate(-15deg) translate(-54px,-15px); } 62.5% { transform: translate(48px,10px) rotate(-75deg) translate(-54px,-15px); animation-timing-function: steps(1); } 62.525% { transform: translate(48px,10px) rotate(-15deg) translate(-54px,-15px); } 75% { transform: translate(48px,10px) rotate(-75deg) translate(-54px,-15px); animation-timing-function: steps(1); } 75.0249% { transform: translate(48px,10px) rotate(-15deg) translate(-54px,-15px); } 87.5% { transform: translate(48px,10px) rotate(-75deg) translate(-54px,-15px); animation-timing-function: steps(1); } 87.5249% { transform: translate(48px,10px) rotate(-15deg) translate(-54px,-15px); } 100% { transform: translate(48px,10px) rotate(-75deg) translate(-54px,-15px); } }
@keyframes left_wheel_t { 0% { transform: translate(10px,10px) rotate(15deg) translate(-16px,-15px); } 12.5% { transform: translate(10px,10px) rotate(-45deg) translate(-16px,-15px); animation-timing-function: steps(1); } 12.525% { transform: translate(10px,10px) rotate(15deg) translate(-16px,-15px); } 25% { transform: translate(10px,10px) rotate(-45deg) translate(-16px,-15px); animation-timing-function: steps(1); } 25.025% { transform: translate(10px,10px) rotate(15deg) translate(-16px,-15px); } 37.5% { transform: translate(10px,10px) rotate(-45deg) translate(-16px,-15px); animation-timing-function: steps(1); } 37.525% { transform: translate(10px,10px) rotate(15deg) translate(-16px,-15px); } 50% { transform: translate(10px,10px) rotate(-45deg) translate(-16px,-15px); animation-timing-function: steps(1); } 50.025% { transform: translate(10px,10px) rotate(15deg) translate(-16px,-15px); } 62.5% { transform: translate(10px,10px) rotate(-45deg) translate(-16px,-15px); animation-timing-function: steps(1); } 62.525% { transform: translate(10px,10px) rotate(15deg) translate(-16px,-15px); } 75% { transform: translate(10px,10px) rotate(-45deg) translate(-16px,-15px); animation-timing-function: steps(1); } 75.0249% { transform: translate(10px,10px) rotate(15deg) translate(-16px,-15px); } 87.5% { transform: translate(10px,10px) rotate(-45deg) translate(-16px,-15px); animation-timing-function: steps(1); } 87.5249% { transform: translate(10px,10px) rotate(15deg) translate(-16px,-15px); } 100% { transform: translate(10px,10px) rotate(-45deg) translate(-16px,-15px); } }
    </style>
    <g clip-path="url(#mainClip)">
        <g transform="translate(15,10) translate(-15,-10)">
            <g mask="url(#Mask-2)" transform="translate(10,10) translate(-10,-10)">
                <ellipse id="left_band" rx="10" ry="10" fill="rgb(116,116,116)" clip-rule="evenodd" fill-rule="evenodd" stroke-linejoin="round" stroke-miterlimit="2" transform="translate(10,10) scale(2.6,2.6)" style="animation: 4s linear infinite both left_band_t;"/>
            </g>
            <g mask="url(#Mask-1)" transform="translate(48,10) translate(-10,-10)">
                <ellipse id="right_band" rx="10" ry="10" fill="rgb(116,116,116)" clip-rule="evenodd" fill-rule="evenodd" stroke-linejoin="round" stroke-miterlimit="2" transform="translate(10,10)" style="animation: 4s linear infinite both right_band_t;"/>
            </g>
        </g>
        <g transform="translate(29,10) translate(-29,-10)">
            <path id="shadow" d="M64,15C64,9.481,59.519,5,54,5L16,5C10.481,5,6,9.481,6,15C6,20.519,10.481,25,16,25L54,25C59.519,25,64,20.519,64,15ZM51.666,6.211C47.777,7.243,44.908,10.789,44.908,15C44.908,19.211,47.777,22.757,51.666,23.789L18.334,23.789C22.223,22.757,25.092,19.211,25.092,15C25.092,10.789,22.223,7.243,18.334,6.211L51.666,6.211ZM16,8C19.863,8,23,11.137,23,15C23,18.863,19.863,22,16,22C12.137,22,9,18.863,9,15C9,11.137,12.137,8,16,8ZM54,8C57.863,8,61,11.137,61,15C61,18.863,57.863,22,54,22C50.137,22,47,18.863,47,15C47,11.137,50.137,8,54,8Z" fill-opacity="0.2" transform="translate(29,10) translate(-35,-15)"/>
            <path id="right_wheel" d="M54,7C58.415,7,62,10.585,62,15C62,19.415,58.415,23,54,23C49.585,23,46,19.415,46,15C46,10.585,49.585,7,54,7ZM54.868,10.832L54.868,9.14C56.39,9.363,57.725,10.167,58.64,11.319L57.176,12.164L58.044,13.668L59.509,12.822C59.776,13.496,59.923,14.231,59.923,15C59.923,15.769,59.776,16.504,59.509,17.178L58.044,16.332L57.176,17.836L58.64,18.681C57.725,19.833,56.39,20.636,54.868,20.86L54.868,19.168L53.132,19.168L53.132,20.86C51.61,20.637,50.275,19.833,49.36,18.681L50.824,17.836L49.956,16.332L48.491,17.178C48.224,16.504,48.077,15.769,48.077,15C48.077,14.231,48.224,13.496,48.491,12.822L49.956,13.668L50.824,12.164L49.36,11.319C50.275,10.167,51.61,9.364,53.132,9.14L53.132,10.832L54.868,10.832Z" fill="rgb(180,180,180)" transform="translate(48,10) rotate(-15) translate(-54,-15)" style="animation: 4s linear infinite both right_wheel_t;"/>
            <path id="left_wheel" d="M16,7C20.415,7,24,10.585,24,15C24,19.415,20.415,23,16,23C11.585,23,8,19.415,8,15C8,10.585,11.585,7,16,7ZM16.868,10.832L16.868,9.14C18.39,9.363,19.725,10.167,20.64,11.319L19.176,12.164L20.044,13.668L21.509,12.822C21.776,13.496,21.923,14.231,21.923,15C21.923,15.769,21.776,16.504,21.509,17.178L20.044,16.332L19.176,17.836L20.64,18.681C19.725,19.833,18.39,20.636,16.868,20.86L16.868,19.168L15.132,19.168L15.132,20.86C13.61,20.637,12.275,19.833,11.36,18.681L12.824,17.836L11.956,16.332L10.491,17.178C10.224,16.504,10.077,15.769,10.077,15C10.077,14.231,10.224,13.496,10.491,12.822L11.956,13.668L12.824,12.164L11.36,11.319C12.275,10.167,13.61,9.364,15.132,9.14L15.132,10.832L16.868,10.832Z" fill="rgb(180,180,180)" transform="translate(10,10) rotate(15) translate(-16,-15)" style="animation: 4s linear infinite both left_wheel_t;"/>
        </g>
    </g>
</svg>
